<svg xmlns="http://www.w3.org/2000/svg" width="26.84" height="27.156" viewBox="0 0 26.84 27.156">
  <defs>
    <style>
      .cls-1 {
        fill: #fff;
        fill-rule: evenodd;
      }
    </style>
  </defs>
  <path id="insta.svg" class="cls-1" d="M1391.58,71.14a2.709,2.709,0,0,0,2.69-2.717,2.782,2.782,0,0,0-.51-1.584,2.664,2.664,0,0,0-4.36,0A2.717,2.717,0,0,0,1391.58,71.14Zm5.86-6.041V62.483h-0.33l-2.25.007,0.01,2.617Zm-5.86-10.248A13.573,13.573,0,1,0,1405,68.423,13.512,13.512,0,0,0,1391.58,54.851Zm7.63,11.988v6.32a2.968,2.968,0,0,1-2.95,2.984h-9.36a2.968,2.968,0,0,1-2.95-2.984V63.688a2.967,2.967,0,0,1,2.95-2.983h9.36a2.967,2.967,0,0,1,2.95,2.983v3.151Zm-3.46,1.584a4.17,4.17,0,1,1-8.34,0,4.371,4.371,0,0,1,.3-1.584h-2.27v6.32a1.467,1.467,0,0,0,1.46,1.478h9.36a1.467,1.467,0,0,0,1.46-1.478v-6.32h-2.28A4.176,4.176,0,0,1,1395.75,68.423Z" transform="translate(-1378.16 -54.844)"/>
</svg>
