<svg xmlns="http://www.w3.org/2000/svg" width="29.969" height="21" viewBox="0 0 29.969 21">
  <defs>
    <style>
      .cls-1 {
        fill: #0058b0;
        fill-rule: evenodd;
      }
    </style>
  </defs>
  <path id="left.svg" class="cls-1" d="M244.8,5052.69a1.047,1.047,0,0,0,1.512,0,1.058,1.058,0,0,0,0-1.49l-7.666-7.63h25.3a1.053,1.053,0,0,0,1.058-1.06,1.068,1.068,0,0,0-1.058-1.07h-25.3l7.666-7.62a1.07,1.07,0,0,0,0-1.5,1.047,1.047,0,0,0-1.512,0l-9.481,9.44a1.033,1.033,0,0,0,0,1.49Z" transform="translate(-235.031 -5032.03)"/>
</svg>
