<svg xmlns="http://www.w3.org/2000/svg" width="28" height="28" viewBox="0 0 28 28">
  <defs>
    <style>
      .cls-1 {
        fill: #fff;
        fill-rule: evenodd;
      }
    </style>
  </defs>
  <path id="skype.svg" class="cls-1" d="M1317.12,67.828a4.963,4.963,0,0,0-1.24-.569c-0.48-.155-1.02-0.3-1.61-0.426q-0.7-.166-1.02-0.253a3.306,3.306,0,0,1-.6-0.237,1.343,1.343,0,0,1-.46-0.356,0.736,0.736,0,0,1-.16-0.483,0.932,0.932,0,0,1,.49-0.778,2.327,2.327,0,0,1,1.31-.329,2.064,2.064,0,0,1,1.26.3,2.45,2.45,0,0,1,.68.85,2.358,2.358,0,0,0,.42.565,0.85,0.85,0,0,0,.58.178,0.932,0.932,0,0,0,.7-0.292,0.96,0.96,0,0,0,.28-0.661,1.8,1.8,0,0,0-.22-0.808,2.669,2.669,0,0,0-.69-0.785,3.729,3.729,0,0,0-1.19-.6,5.6,5.6,0,0,0-1.68-.224,6.023,6.023,0,0,0-2.12.339,3.024,3.024,0,0,0-1.39.974,2.329,2.329,0,0,0-.47,1.449,2.272,2.272,0,0,0,.45,1.436,3.031,3.031,0,0,0,1.23.907,10.372,10.372,0,0,0,1.9.578q0.84,0.178,1.35.338a2.078,2.078,0,0,1,.81.454,1.012,1.012,0,0,1,.3.762,1.16,1.16,0,0,1-.57.992,2.625,2.625,0,0,1-1.52.4,2.488,2.488,0,0,1-1.09-.2,1.687,1.687,0,0,1-.65-0.5,4.428,4.428,0,0,1-.43-0.77,1.579,1.579,0,0,0-.4-0.606,0.921,0.921,0,0,0-.6-0.208,1.006,1.006,0,0,0-.71.266,0.876,0.876,0,0,0-.28.641,2.321,2.321,0,0,0,.46,1.294,3.284,3.284,0,0,0,1.18,1.058,5.384,5.384,0,0,0,2.58.55,5.805,5.805,0,0,0,2.26-.4,3.263,3.263,0,0,0,1.45-1.116,2.765,2.765,0,0,0,.5-1.611,2.59,2.59,0,0,0-.29-1.263A2.408,2.408,0,0,0,1317.12,67.828ZM1314,54a14,14,0,1,0,14,14A14,14,0,0,0,1314,54Zm3.7,22.432a4.7,4.7,0,0,1-2.48-.7,7.944,7.944,0,0,1-1.23.095A7.826,7.826,0,0,1,1306.17,68a8.17,8.17,0,0,1,.1-1.22,4.668,4.668,0,0,1-.7-2.483,4.72,4.72,0,0,1,7.2-4.022,7.924,7.924,0,0,1,1.22-.1A7.828,7.828,0,0,1,1321.82,68a8.174,8.174,0,0,1-.1,1.221,4.664,4.664,0,0,1,.7,2.483A4.721,4.721,0,0,1,1317.7,76.428Z" transform="translate(-1300 -54)"/>
</svg>
